<?xml version="1.0" encoding="UTF-8" standalone="no"?>
<svg
   xmlns:dc="http://purl.org/dc/elements/1.1/"
   xmlns:cc="http://creativecommons.org/ns#"
   xmlns:rdf="http://www.w3.org/1999/02/22-rdf-syntax-ns#"
   xmlns:svg="http://www.w3.org/2000/svg"
   xmlns="http://www.w3.org/2000/svg"
   xmlns:sodipodi="http://sodipodi.sourceforge.net/DTD/sodipodi-0.dtd"
   xmlns:inkscape="http://www.inkscape.org/namespaces/inkscape"
   version="1.1"
   id="Layer_1"
   x="0px"
   y="0px"
   viewBox="0 0 122.9 85.6"
   style="enable-background:new 0 0 122.9 85.6"
   xml:space="preserve"
   sodipodi:docname="dashboard-report.svg"
   inkscape:version="0.92.3 (2405546, 2018-03-11)"><metadata
     id="metadata13"><rdf:RDF><cc:Work
         rdf:about=""><dc:format>image/svg+xml</dc:format><dc:type
           rdf:resource="http://purl.org/dc/dcmitype/StillImage" /><dc:title></dc:title></cc:Work></rdf:RDF></metadata><defs
     id="defs11" /><sodipodi:namedview
     pagecolor="#ffffff"
     bordercolor="#666666"
     borderopacity="1"
     objecttolerance="10"
     gridtolerance="10"
     guidetolerance="10"
     inkscape:pageopacity="0"
     inkscape:pageshadow="2"
     inkscape:window-width="1920"
     inkscape:window-height="1017"
     id="namedview9"
     showgrid="false"
     inkscape:zoom="2.3108218"
     inkscape:cx="61.450001"
     inkscape:cy="42.799999"
     inkscape:window-x="-8"
     inkscape:window-y="-8"
     inkscape:window-maximized="1"
     inkscape:current-layer="Layer_1" /><style
     type="text/css"
     id="style2">.st0{fill-rule:evenodd;clip-rule:evenodd;}</style><g
     id="g6"
     style="fill:#ffffff"><path
       class="st0"
       d="M7.5,0h107.9c4.1,0,7.5,3.4,7.5,7.5v70.6c0,4.1-3.4,7.5-7.5,7.5H7.5c-4.1,0-7.5-3.4-7.5-7.5V7.5 C0,3.4,3.4,0,7.5,0L7.5,0z M69.9,63.3h28.5v4H69.9V63.3L69.9,63.3z M69.9,53.1H109v4H69.9V53.1L69.9,53.1z M92.1,35h5.6 c0.3,0,0.5,0.2,0.5,0.5v11c0,0.3-0.2,0.5-0.5,0.5h-5.6c-0.3,0-0.5-0.2-0.5-0.5v-11C91.6,35.3,91.8,35,92.1,35L92.1,35L92.1,35z M70.5,28.3h5.6c0.3,0,0.5,0.2,0.5,0.5v17.8c0,0.3-0.2,0.5-0.5,0.5h-5.6c-0.3,0-0.5-0.2-0.5-0.5V28.8 C69.9,28.5,70.2,28.3,70.5,28.3L70.5,28.3L70.5,28.3L70.5,28.3z M81.3,24.5h5.6c0.3,0,0.5,0.2,0.5,0.5v21.6c0,0.3-0.2,0.5-0.5,0.5 h-5.6c-0.3,0-0.5-0.2-0.5-0.5V25C80.8,24.7,81,24.5,81.3,24.5L81.3,24.5L81.3,24.5z M39.3,48.2l17,0.3c0,6.1-3,11.7-8,15.1 L39.3,48.2L39.3,48.2L39.3,48.2z M37.6,45.3l-0.2-19.8l0-1.3l1.3,0.1h0h0c1.6,0.1,3.2,0.4,4.7,0.8c1.5,0.4,2.9,1,4.3,1.7 c6.9,3.6,11.7,10.8,12.1,19l0.1,1.3l-1.3,0l-19.7-0.6l-1.1,0L37.6,45.3L37.6,45.3L37.6,45.3z M39.8,26.7L40,44.1l17.3,0.5 c-0.7-6.8-4.9-12.7-10.7-15.8c-1.2-0.6-2.5-1.1-3.8-1.5C41.7,27.1,40.8,26.9,39.8,26.7L39.8,26.7L39.8,26.7z M35.9,47.2L45.6,64 c-3,1.7-6.3,2.6-9.7,2.6c-10.7,0-19.4-8.7-19.4-19.4c0-10.4,8.2-19,18.6-19.4L35.9,47.2L35.9,47.2L35.9,47.2z M115.6,14.1H7.2v64.4 h108.4V14.1L115.6,14.1L115.6,14.1z"
       id="path4"
       style="fill:#ffffff" /></g></svg>