<?xml version="1.0" encoding="UTF-8" standalone="no"?>
<!-- Created with Inkscape (http://www.inkscape.org/) -->

<svg
   xmlns:dc="http://purl.org/dc/elements/1.1/"
   xmlns:cc="http://creativecommons.org/ns#"
   xmlns:rdf="http://www.w3.org/1999/02/22-rdf-syntax-ns#"
   xmlns:svg="http://www.w3.org/2000/svg"
   xmlns="http://www.w3.org/2000/svg"
   xmlns:xlink="http://www.w3.org/1999/xlink"
   xmlns:sodipodi="http://sodipodi.sourceforge.net/DTD/sodipodi-0.dtd"
   xmlns:inkscape="http://www.inkscape.org/namespaces/inkscape"
   width="210mm"
   height="297mm"
   viewBox="0 0 210 297"
   version="1.1"
   id="svg8"
   inkscape:version="0.92.3 (2405546, 2018-03-11)"
   sodipodi:docname="logo.svg">
  <defs
     id="defs2">
    <linearGradient
       inkscape:collect="always"
       id="linearGradient832">
      <stop
         style="stop-color:#000000;stop-opacity:1;"
         offset="0"
         id="stop828" />
      <stop
         style="stop-color:#000000;stop-opacity:0;"
         offset="1"
         id="stop830" />
    </linearGradient>
    <linearGradient
       inkscape:collect="always"
       xlink:href="#linearGradient832"
       id="linearGradient834"
       x1="45.564598"
       y1="137.52499"
       x2="164.59018"
       y2="137.52499"
       gradientUnits="userSpaceOnUse"
       gradientTransform="matrix(1.7494478,0,0,1.7418256,-78.296442,-93.62849)" />
  </defs>
  <sodipodi:namedview
     id="base"
     pagecolor="#ffffff"
     bordercolor="#666666"
     borderopacity="1.0"
     inkscape:pageopacity="0.0"
     inkscape:pageshadow="2"
     inkscape:zoom="0.35"
     inkscape:cx="104.77622"
     inkscape:cy="774.27231"
     inkscape:document-units="mm"
     inkscape:current-layer="layer1"
     showgrid="false"
     inkscape:window-width="1920"
     inkscape:window-height="1017"
     inkscape:window-x="-8"
     inkscape:window-y="-8"
     inkscape:window-maximized="1" />
  <metadata
     id="metadata5">
    <rdf:RDF>
      <cc:Work
         rdf:about="">
        <dc:format>image/svg+xml</dc:format>
        <dc:type
           rdf:resource="http://purl.org/dc/dcmitype/StillImage" />
        <dc:title></dc:title>
      </cc:Work>
    </rdf:RDF>
  </metadata>
  <g
     inkscape:label="Layer 1"
     inkscape:groupmode="layer"
     id="layer1">
    <path
       style="fill:#ea8661;fill-opacity:1;stroke:url(#linearGradient834);stroke-width:0.49265626;stroke-opacity:1"
       d="m 73.04896,271.15226 c -2.220837,-0.63768 -5.351629,-3.88181 -6.079031,-6.29909 l -0.600181,-1.99451 H 42.501843 18.633947 v -8.60268 -8.60267 h 17.306287 17.306287 l -3.111462,-2.54192 C 45.684813,239.47577 39.765892,233.30848 36.320037,228.71667 18.82339,205.40132 14.158952,175.97611 23.587823,148.3965 c 1.070398,-3.13092 1.782288,-5.83103 1.581986,-6.00024 -0.200312,-0.16912 -1.722293,-1.32843 -3.382174,-2.57605 C 13.796696,133.81396 7.2358637,124.62282 4.169156,115.13832 2.0828846,108.68605 1.6413644,105.69684 1.6641093,98.178717 1.6825429,92.079139 1.8731142,90.352171 2.9848622,86.208368 6.740876,72.208551 15.020174,61.296615 27.47681,53.928508 c 6.346278,-3.753832 16.879292,-6.8743 23.203903,-6.8743 1.383005,0 2.514546,-0.113794 2.514546,-0.252878 0,-0.139084 -3.793163,-5.911425 -8.429246,-12.827428 -4.636092,-6.916002 -8.309115,-12.694158 -8.16229,-12.840346 0.64439,-0.641582 10.531362,-1.181732 17.085265,-0.933414 15.154379,0.574181 26.904706,3.798383 36.747397,10.083212 4.467702,2.852748 10.941425,9.369102 13.119645,13.206041 0.95043,1.674196 1.83916,3.043994 1.97493,3.043994 0.13575,0 1.0245,-1.369798 1.97493,-3.043994 2.17822,-3.836939 8.65193,-10.353293 13.11964,-13.206041 9.84269,-6.284829 21.59301,-9.509031 36.74739,-10.083212 6.55391,-0.248318 16.44088,0.291832 17.08527,0.933414 0.14677,0.146191 -3.52621,5.924344 -8.16229,12.840346 -4.63607,6.916003 -8.42925,12.688345 -8.42925,12.827428 0,0.139084 1.13154,0.252878 2.51456,0.252878 1.38298,0 4.70883,0.445223 7.39077,0.989383 19.90013,4.037724 34.98007,18.316867 40.30508,38.164777 1.11174,4.143803 1.30228,5.870771 1.32075,11.970349 0.0228,7.518123 -0.41878,10.507333 -2.50505,16.959603 -3.0667,9.4845 -9.62755,18.67564 -17.61848,24.68189 -1.65987,1.24762 -3.18187,2.40684 -3.38218,2.57605 -0.20029,0.16914 0.5116,2.86932 1.582,6.00024 9.42886,27.57961 4.76442,57.00482 -12.73223,80.32017 -3.44584,4.59181 -9.36477,10.7591 -13.81502,14.39472 l -3.11146,2.54192 h 17.3063 17.30628 v 8.60267 8.60268 h -23.8679 -23.8679 l -0.60018,1.99451 c -0.3301,1.09697 -1.46175,2.85231 -2.51476,3.90074 -2.85498,2.84253 -6.71295,3.6671 -10.25783,2.1924 -2.53282,-1.05367 -4.00416,-2.52153 -5.31542,-5.3028 l -1.12056,-2.37677 -0.3426,1.55301 c -0.71904,3.25953 -5.36784,6.85471 -8.88834,6.87385 -4.07282,0.0221 -8.65128,-3.06943 -9.36989,-6.32697 -0.185,-0.83864 -0.52323,-1.5248 -0.75163,-1.5248 -0.22841,0 -0.56665,0.68616 -0.75165,1.5248 -0.71861,3.25754 -5.297057,6.34911 -9.36988,6.32697 -3.520497,-0.0191 -8.169302,-3.61432 -8.888344,-6.87385 l -0.342593,-1.55301 -1.120552,2.37677 c -2.344895,4.9737 -6.782691,7.0094 -12.008981,5.50875 z m 45.43898,-107.46668 c 6.99444,-6.96008 12.71713,-12.8791 12.71713,-13.15337 0,-0.27427 -5.77668,-6.24699 -12.83705,-13.27271 L 105.53096,124.48546 92.693897,137.2595 c -7.060384,7.02572 -12.837053,12.99527 -12.837053,13.26569 0,0.48388 25.185946,25.81506 25.667066,25.81506 0.13575,0 5.96963,-5.6946 12.96403,-12.65467 z M 62.477034,132.04939 C 81.317823,127.1094 92.451873,107.03839 86.574201,88.610119 83.08482,77.669848 74.764756,69.457472 63.31678,65.653717 c -2.913507,-0.968058 -4.463844,-1.148351 -9.874652,-1.148351 -5.410818,0 -6.961154,0.180293 -9.874662,1.148351 -6.054745,2.011775 -10.055573,4.427874 -14.3667,8.67603 -4.464258,4.399048 -7.030548,8.522332 -8.979212,14.426999 -1.608579,4.874168 -1.814854,13.775804 -0.433311,18.699334 5.273382,18.79327 23.89461,29.52107 42.688791,24.59331 z M 47.182377,114.70425 c -6.975015,-2.85633 -10.941373,-8.68641 -10.886173,-16.001418 0.05117,-6.782182 3.951964,-12.772738 10.123868,-15.547553 4.377116,-1.967897 9.666987,-1.967897 14.044103,0 6.221211,2.796989 10.092682,8.786988 10.096852,15.622016 0.002,3.982645 -0.667901,6.201075 -2.887912,9.557425 -4.382152,6.62524 -13.184592,9.36146 -20.490738,6.36953 z m 119.472333,17.34514 c 11.87925,-3.11471 21.20659,-12.43232 24.61896,-24.59331 1.38154,-4.92353 1.17528,-13.825166 -0.4333,-18.699334 -3.70103,-11.214461 -11.85713,-19.285711 -23.34593,-23.103029 -2.91351,-0.968058 -4.46384,-1.148351 -9.87466,-1.148351 -7.22439,0 -10.39393,0.772348 -16.78691,4.090587 -4.53205,2.352336 -10.78086,8.465844 -13.32132,13.032859 -15.01141,26.986328 9.26345,58.254918 39.14316,50.420578 z m -15.24584,-17.32538 c -3.71148,-1.5202 -6.01145,-3.3525 -8.02007,-6.38929 -2.22002,-3.35635 -2.89035,-5.57478 -2.88792,-9.557425 0.003,-6.765391 3.92596,-12.847932 10.06274,-15.606775 4.41316,-1.983974 9.68657,-1.989687 14.07822,-0.01567 6.17189,2.774815 10.07268,8.765372 10.12387,15.547535 0.028,3.714395 -0.6617,6.126275 -2.69092,9.409825 -4.09418,6.62489 -13.38008,9.59559 -20.66592,6.61134 z"
       id="path826"
       inkscape:connector-curvature="0" />
  </g>
</svg>
